PathFileType	4	(X/Y/Z)	C:/Users/beibeiliu/ov580/test_trc\sequence.39_training_dense_left.trc
DataRate	CameraRate	NumFrames	NumMarkers	Units	OrigDataRate	OrigDataStartFrame	OrigNumFrames
120	120	7	19	mm	120	1	400
Frame#	Time	ThumbCMC			ThumbMCP			ThumbIP			ThumbTip			IndexMCP			IndexPIP			IndexTip			MiddleMCP			MiddlePIP			MiddleTip			RingMCP			RingPIP			RingTip			PinkyMCP			PinkyPIP			PinkyTip			BackHand1			BackHand2			BackHand3	
		X0	Y0	Z0	X1	Y1	Z1	X2	Y2	Z2	X3	Y3	Z3	X4	Y4	Z4	X5	Y5	Z5	X6	Y6	Z6	X7	Y7	Z7	X8	Y8	Z8	X9	Y9	Z9	X10	Y10	Z10	X11	Y11	Z11	X12	Y12	Z12	X13	Y13	Z13	X14	Y14	Z14	X15	Y15	Z15	X16	Y16	Z16	X17	Y17	Z17	X18	Y18	Z18	
0	0	-147.451	6.65551	41.199	-135.445	-6.74202	18.1099	-127.112	-12.0207	-4.89622	-128.975	-19.6153	-30.0301	-153.573	0.489063	-26.0195	-148.558	-27.1754	-29.4515	-150.359	-33.4232	3.954	-169.447	-8.52294	-29.3733	-166.151	-37.7644	-23.8062	-168.046	-29.5721	7.91498	-184.376	-16.3355	-24.9423	-177.738	-38.0231	-15.3084	-176.876	-30.3268	12.6153	-203.753	-19.0341	-16.2515	-193.159	-36.7867	-8.67925	-182.839	-26.7995	14.577	-195.426	20.6919	9.94167	-198.455	24.3189	42.3117	-171.832	27.7508	27.26	
1	0.00833333	-151.763	7.38907	38.134	-137.194	-4.03836	16.1573	-134.711	-8.88491	-5.50751	-131.12	-16.8402	-29.6152	-156.589	-0.580445	-27.514	-153.294	-30.3228	-26.4167	-155.661	-31.2478	5.03087	-170.811	-11.2428	-30.182	-167.763	-36.9651	-23.618	-170.837	-27.8218	9.92516	-191.507	-16.3472	-24.4606	-179.126	-37.0721	-12.7557	-179.4	-24.4111	17.035	-205.362	-15.232	-14.5086	-192.974	-37.4691	-3.06376	-186.387	-27.726	17.5209	-200.738	20.1086	12.318	-200.031	25.9712	38.6597	-173.467	27.605	24.7187	
2	0.0166667	-153.857	7.90309	39.6973	-140.322	-2.41915	18.6816	-132.912	-7.10209	-9.0792	-132.186	-13.2975	-25.0721	-153.104	-3.17255	-28.7798	-155.301	-28.0497	-26.4259	-153.387	-31.144	3.72221	-175.604	-8.28092	-28.7863	-169.889	-36.4167	-20.8044	-169.633	-27.8097	10.2684	-188.849	-12.715	-23.0637	-180.193	-36.5118	-6.95046	-182.274	-23.1049	17.2163	-207.633	-16.4445	-15.9293	-195.851	-36.1572	-3.15704	-188.82	-23.9571	16.5466	-203.213	21.6102	11.2131	-200.972	25.2664	38.2451	-177.139	28.1306	27.0411	
3	0.025	-151.344	9.87045	35.1401	-141.698	-0.735824	15.5587	-134.748	-5.45652	-7.06714	-130.459	-11.8595	-23.9602	-156.568	-2.24314	-28.432	-152.768	-29.7258	-22.9318	-160.428	-29.7037	2.54046	-174.264	-5.87733	-27.8697	-171.378	-36.172	-18.2305	-173.868	-25.7856	11.3023	-188.458	-13.994	-24.0034	-182.503	-35.569	-7.37348	-180.823	-24.8418	15.0167	-204.917	-12.1297	-14.8605	-193.275	-33.509	-4.94914	-188.948	-23.3696	18.6417	-201.588	21.9287	8.26217	-205.35	26.2138	36.3711	-176.002	29.5825	23.9839	
4	0.0333333	-156.439	9.34019	38.152	-140.548	0.272006	13.6822	-131.625	-5.10758	-5.93488	-127.835	-11.2409	-26.3446	-154.126	1.49459	-27.261	-154.331	-26.7411	-26.5409	-157.002	-28.5447	4.55955	-171.377	-9.53481	-30.9892	-169.371	-35.0576	-15.7726	-172.279	-26.5012	10.9654	-193.539	-13.9805	-23.3418	-181.608	-34.6034	-6.17427	-184.603	-19.8704	17.0028	-208.866	-15.9679	-15.9907	-193.967	-31.3222	-5.9688	-190.279	-21.378	18.8725	-202.939	24.3507	8.07649	-200.077	28.2088	35.0829	-177.044	29.1496	23.5143	
5	0.0416667	-155.61	10.8657	33.6636	-141.202	1.37622	14.4126	-133.64	-3.04971	-9.29844	-126.782	-10.5611	-27.477	-153.501	3.11719	-26.7426	-158.216	-27.2659	-23.5483	-158.36	-26.4857	4.13111	-175.788	-8.7255	-30.1757	-170.446	-34.0389	-18.747	-175.768	-24.0486	10.9393	-194.152	-13.2196	-23.889	-184.984	-34.2145	-6.01933	-185.842	-21.7196	15.9041	-207.147	-13.4323	-17.2177	-195.287	-30.5006	-7.32001	-192.53	-19.6102	16.9856	-200.163	25.5648	11.2844	-202.675	27.7713	36.4662	-174.037	30.2358	24.804	
6	0.05	-153.013	11.574	34.0213	-138.563	0.873185	13.4743	-134.37	-5.44386	-4.95299	-128.536	-10.5662	-25.5079	-157.342	-0.163592	-29.8394	-154.123	-24.118	-26.2585	-160.905	-25.6083	3.08824	-176.579	-8.27382	-30.6733	-170.343	-32.2905	-21.2553	-173.669	-22.5906	12.2983	-190.196	-8.9058	-23.4251	-184.459	-32.3341	-9.08138	-182.547	-16.8719	17.3455	-209.056	-13.9861	-17.0928	-195.197	-30.4747	-1.97038	-192.046	-17.0947	17.8288	-198.986	24.3678	11.7929	-204.318	28.1122	37.9893	-177.571	32.1146	25.765	
